<?xml version="1.0" encoding="UTF-8"?>
<svg id="Layer_2" data-name="Layer 2" xmlns="http://www.w3.org/2000/svg" viewBox="0 0 720.181274414062 720.181518554688">
  <g id="Layer_1-2" data-name="Layer 1">
    <g>
      <path d="M720.181274414062,360.090698242188C720.181274414062,161.218139648438,558.963256835938,0,360.090698242188,0,161.217956542969,0,0,161.218139648438,0,360.090698242188c0,198.872680664062,161.217956542969,360.0908203125,360.090698242188,360.0908203125,198.87255859375,0,360.090576171875-161.218139648438,360.090576171875-360.0908203125ZM126.681274414062,593.500183105469c-30.324645996094-30.324645996094-54.129455566406-65.628967285156-70.753479003906-104.932495117188-17.204467773438-40.675842285156-25.927795410156-83.901794433594-25.927795410156-128.476989746094s8.723327636719-87.801025390625,25.927795410156-128.47705078125c16.6240234375-39.30322265625,40.428833007812-74.607666015625,70.753479003906-104.932250976562,30.32470703125-30.32470703125,65.629028320312-54.129516601562,104.932312011719-70.753540039062,40.675842285156-17.204467773438,83.901916503906-25.927856445312,128.477111816406-25.927856445312s87.801025390625,8.723388671875,128.47705078125,25.927856445312c39.30322265625,16.6240234375,74.607666015625,40.428833007812,104.93212890625,70.753540039062,30.32470703125,30.324584960938,54.129638671875,65.629028320312,70.753662109375,104.932250976562,17.204345703125,40.676025390625,25.927734375,83.90185546875,25.927734375,128.47705078125s-8.723388671875,87.801147460938-25.927734375,128.476989746094c-16.6240234375,39.303527832031-40.428955078125,74.607849121094-70.753662109375,104.932495117188-30.324462890625,30.32470703125-65.62890625,54.129516601562-104.93212890625,70.753540039062-40.676025390625,17.204467773438-83.90185546875,25.927795410156-128.47705078125,25.927795410156s-87.80126953125-8.723327636719-128.477111816406-25.927795410156c-39.303283691406-16.6240234375-74.607604980469-40.428833007812-104.932312011719-70.753540039062Z" fill="#fff" stroke-width="0"/>
      <path d="M367.522827148438,531.472229003906l69.762939453125-83.821472167969c4.494140625-5.39990234375.654052734375-13.591796875-6.371337890625-13.591796875h-53.7890625v-251.063720703125c0-8.2841796875-6.7158203125-15-15-15s-15,6.7158203125-15,15v251.063720703125h-55.471313476562c-7.018188476562,0-10.860473632812,8.177124023438-6.381103515625,13.579833984375l69.49755859375,83.821533203125c3.310668945312,3.993041992188,9.434204101562,3.998779296875,12.752319335938.011901855469Z" fill="#fff" stroke-width="0"/>
    </g>
  </g>
</svg>