<?xml version="1.0" encoding="UTF-8"?>
<svg id="Layer_2" data-name="Layer 2" xmlns="http://www.w3.org/2000/svg" viewBox="0 0 720.181518554688 720.181274414062">
  <g id="Layer_1-2" data-name="Layer 1">
    <g>
      <path d="M360.090698242188,0C161.218139648438,0,0,161.218017578125,0,360.090576171875c0,198.872741699219,161.218139648438,360.090698242188,360.090698242188,360.090698242188,198.872680664062,0,360.0908203125-161.217956542969,360.0908203125-360.090698242188C720.181518554688,161.218017578125,558.96337890625,0,360.090698242188,0ZM593.500183105469,593.5c-30.324645996094,30.324645996094-65.628967285156,54.129455566406-104.932495117188,70.753479003906-40.675842285156,17.204467773438-83.901794433594,25.927795410156-128.476989746094,25.927795410156s-87.801025390625-8.723327636719-128.47705078125-25.927795410156c-39.30322265625-16.6240234375-74.607666015625-40.428833007812-104.932250976562-70.753479003906-30.32470703125-30.32470703125-54.129516601562-65.629028320312-70.753540039062-104.932312011719-17.204467773438-40.675842285156-25.927856445312-83.901916503906-25.927856445312-128.477111816406s8.723388671875-87.801025390625,25.927856445312-128.47705078125c16.6240234375-39.30322265625,40.428833007812-74.607666015625,70.753540039062-104.93212890625,30.324584960938-30.32470703125,65.629028320312-54.129638671875,104.932250976562-70.753662109375,40.676025390625-17.204345703125,83.90185546875-25.927734375,128.47705078125-25.927734375s87.801147460938,8.723388671875,128.476989746094,25.927734375c39.303527832031,16.6240234375,74.607849121094,40.428955078125,104.932495117188,70.753662109375,30.32470703125,30.324462890625,54.129516601562,65.62890625,70.753540039062,104.93212890625,17.204467773438,40.676025390625,25.927795410156,83.90185546875,25.927795410156,128.47705078125s-8.723327636719,87.80126953125-25.927795410156,128.477111816406c-16.6240234375,39.303283691406-40.428833007812,74.607604980469-70.753540039062,104.932312011719Z" fill="#1c1c1c" stroke-width="0"/>
      <path d="M531.472229003906,352.658447265625l-83.821472167969-69.762939453125c-5.39990234375-4.494140625-13.591796875-.654052734375-13.591796875,6.371337890625v53.7890625h-251.063720703125c-8.2841796875,0-15,6.7158203125-15,15s6.7158203125,15,15,15h251.063720703125v55.471313476562c0,7.018188476562,8.177124023438,10.860473632812,13.579833984375,6.381103515625l83.821533203125-69.49755859375c3.993041992188-3.310668945312,3.998779296875-9.434204101562.011901855469-12.752319335938Z" fill="#1c1c1c" stroke-width="0"/>
    </g>
  </g>
</svg>