<?xml version="1.0" encoding="utf-8"?>
<!-- Generator: Adobe Illustrator 28.3.0, SVG Export Plug-In . SVG Version: 6.00 Build 0)  -->
<svg version="1.1" id="Layer_2_00000018952998857600632220000011512187963900104639_"
	 xmlns="http://www.w3.org/2000/svg" xmlns:xlink="http://www.w3.org/1999/xlink" x="0px" y="0px" viewBox="0 0 720.2 720.2"
	 style="enable-background:new 0 0 720.2 720.2;" xml:space="preserve">
<style type="text/css">
	.st0{fill:#FFFFFF;}
</style>
<g id="Layer_1-2">
	<g>
		<path class="st0" d="M0,360.1C0,559,161.2,720.2,360.1,720.2S720.2,559,720.2,360.1S559,0,360.1,0S0,161.2,0,360.1z M593.5,126.7
			c30.3,30.3,54.1,65.6,70.8,104.9c17.2,40.7,25.9,83.9,25.9,128.5s-8.7,87.8-25.9,128.5c-16.6,39.3-40.4,74.6-70.8,104.9
			c-30.3,30.3-65.6,54.1-104.9,70.8c-40.7,17.2-83.9,25.9-128.5,25.9s-87.8-8.7-128.5-25.9c-39.3-16.6-74.6-40.4-104.9-70.8
			c-30.3-30.3-54.1-65.6-70.8-104.9C38.7,447.9,30,404.7,30,360.1s8.7-87.8,25.9-128.5c16.6-39.3,40.4-74.6,70.8-104.9
			c30.3-30.3,65.6-54.1,104.9-70.8C272.3,38.7,315.5,30,360.1,30s87.8,8.7,128.5,25.9C527.9,72.6,563.2,96.4,593.5,126.7z"/>
		<path class="st0" d="M352.7,188.7l-69.8,83.8c-4.5,5.4-0.7,13.6,6.4,13.6h53.8v251.1c0,8.3,6.7,15,15,15s15-6.7,15-15V286.1h55.5
			c7,0,10.9-8.2,6.4-13.6l-69.5-83.8C362.1,184.7,356,184.7,352.7,188.7z"/>
	</g>
</g>
</svg>
